<svg width="400" height="400" fill="none" xmlns="http://www.w3.org/2000/svg" viewBox="0 0 48 48"
     class="sc-bczRLJ eaQhKt sc-1bkdx8b-1 isUVS">
    <path d="M38.56 31.504c7.423-3.856 10.492-12.695 6.856-19.743-3.636-7.048-12.6-9.635-20.023-5.78-7.422 3.856-10.491 12.696-6.855 19.744 3.636 7.047 12.6 9.635 20.022 5.78z"
          fill="rgba(57, 148, 255, 0.2)"></path>
    <path d="M26.897 40.8c7.654-3.976 10.046-14.593 5.34-23.713-4.704-9.12-14.723-13.29-22.378-9.313C2.205 11.75-.186 22.367 4.52 31.487c4.705 9.12 14.724 13.29 22.378 9.313z"
          fill="rgba(57, 148, 255, 0.2)"></path>
    <path d="M10.166 33.654h16.308c3.113 0 5.638-2.533 5.638-5.657v-2.37c0-3.125-2.525-5.658-5.639-5.658H10.167c-3.114 0-5.638 2.533-5.638 5.658v2.37c0 3.124 2.524 5.657 5.638 5.657z"
          fill="#5ACFF5"></path>
    <path d="M10.09 33.484l-1.56 5.134 5.734-5.134h-4.175z" fill="#5ACFF5"></path>
    <path d="M14.7 28.068c.673 0 1.218-.548 1.218-1.223 0-.676-.545-1.223-1.219-1.223-.673 0-1.219.547-1.219 1.223 0 .675.546 1.223 1.22 1.223zM18.356 28.068c.673 0 1.219-.548 1.219-1.223 0-.676-.546-1.223-1.219-1.223s-1.219.547-1.219 1.223c0 .675.546 1.223 1.22 1.223zM22.013 28.068c.673 0 1.219-.548 1.219-1.223 0-.676-.546-1.223-1.22-1.223-.672 0-1.218.547-1.218 1.223 0 .675.546 1.223 1.219 1.223z"
          fill="#313442"></path>
    <path d="M38.367 8.672H14.454c-3.76 0-6.807 3.058-6.807 6.83v2.385c0 3.772 3.048 6.83 6.807 6.83h23.913c3.759 0 6.806-3.058 6.806-6.83v-2.384c0-3.773-3.047-6.83-6.806-6.83z"
          fill="#E1FBFF"></path>
    <path d="M38.806 24.573l2.12 5.624-7.798-5.624h5.678z" fill="#E1FBFF"></path>
    <path d="M14.434 16.709c.743 0 1.346-.915 1.346-2.043 0-1.129-.603-2.043-1.346-2.043-.743 0-1.346.915-1.346 2.043 0 1.128.603 2.043 1.346 2.043z"
          fill="#5ACFF5"></path>
    <path d="M14.434 16.71c.372-.646-.116-1.627-1.09-2.191-.974-.565-2.064-.498-2.436.148-.372.646.116 1.627 1.09 2.191.974.564 2.064.498 2.436-.148z"
          fill="#5ACFF5"></path>
    <path d="M13.343 18.901c.974-.564 1.462-1.545 1.09-2.191-.372-.646-1.462-.713-2.436-.149-.974.565-1.462 1.546-1.09 2.192.372.646 1.462.712 2.436.148z"
          fill="#5ACFF5"></path>
    <path d="M14.434 20.797c.743 0 1.346-.915 1.346-2.043 0-1.129-.603-2.043-1.346-2.043-.743 0-1.346.914-1.346 2.043 0 1.128.603 2.043 1.346 2.043z"
          fill="#5ACFF5"></path>
    <path d="M17.96 18.753c.373-.646-.115-1.627-1.09-2.19-.973-.565-2.064-.498-2.435.148-.372.646.116 1.627 1.09 2.19.974.565 2.064.498 2.436-.148z"
          fill="#5ACFF5"></path>
    <path d="M16.87 16.859c.974-.564 1.462-1.545 1.09-2.191-.372-.646-1.462-.713-2.436-.149-.974.565-1.462 1.546-1.09 2.192.371.646 1.462.712 2.436.148z"
          fill="#5ACFF5"></path>
    <path d="M14.468 18.232a1.52 1.52 0 001.518-1.523 1.52 1.52 0 00-1.518-1.524 1.52 1.52 0 00-1.518 1.524c0 .841.68 1.523 1.518 1.523z"
          fill="#FFE570"></path>
    <path d="M14.23 16.053c.19-.19.233-.453.098-.588-.135-.136-.398-.092-.587.098-.189.19-.233.453-.098.589.135.135.398.091.587-.099zM13.5 16.777a.207.207 0 100-.415.207.207 0 000 .415z"
          fill="#FFF6AF"></path>
    <path opacity="0.1"
          d="M17.961 18.753c-.342.591-1.29.697-2.194.273-.088 1-.651 1.77-1.333 1.77v-8.173c.682 0 1.245.77 1.333 1.769.904-.422 1.852-.32 2.194.272.342.59-.045 1.469-.863 2.045.818.576 1.204 1.452.863 2.044z"
          fill="#000"></path>
    <path d="M28.999 12.863a2.235 2.235 0 00-2.709.75 2.244 2.244 0 00-2.709-.75 2.057 2.057 0 00-1.136 1.126 2.258 2.258 0 00.932 2.828 2.237 2.237 0 002.913-.577 2.242 2.242 0 002.913.578 2.259 2.259 0 00.933-2.829 2.048 2.048 0 00-1.137-1.126z"
          fill="#5ACFF5"></path>
    <path d="M22.649 16.2h7.29L26.5 20.626a.295.295 0 01-.36.084.295.295 0 01-.104-.084L22.65 16.2z"
          fill="#5ACFF5"></path>
    <path opacity="0.1"
          d="M29.773 16.403l-3.28 4.219a.29.29 0 01-.2.11v-7.117a2.244 2.244 0 012.706-.75 2.036 2.036 0 011.137 1.126 2.285 2.285 0 01-.363 2.412z"
          fill="#000"></path>
    <path d="M42.035 16.611l-.35 3.19a.94.94 0 01-.95.84l-3.039-.038-.793-.013V16.2h-.218l.218-.163v-.078h.101l.071-.051.33-.188c.15-.09.343-.202.55-.33.477-.295 1.025-.514 1.35-.735.36-.242.358-.655.416-1.026.058-.372.056-.888.17-1.043.168-.104.85-.136.959.416.108.551.17 1.097 0 1.619-.1.378-.272.733-.507 1.045.09.139.226.24.383.289h.724a.58.58 0 01.585.656z"
          fill="#4F4F4F"></path>
    <path opacity="0.1"
          d="M37.864 16.416v3.724a.752.752 0 01-.162.463l-.793-.013V16.2h-.219l.22-.163v-.078h.1l.071-.051.33-.188a.748.748 0 01.453.696z"
          fill="#000"></path>
    <path d="M36.46 15.671h-1.222a.743.743 0 00-.742.745v3.724c0 .411.332.745.742.745h1.222c.41 0 .743-.334.743-.745v-3.724a.743.743 0 00-.743-.745z"
          fill="#5ACFF5"></path>
</svg>